<svg width="68" height="13" viewBox="0 0 68 13" fill="none" xmlns="http://www.w3.org/2000/svg">
<path d="M4.22875 9.44531L6.49437 0.625H7.68187L7.54906 2.89844L5.12719 12H3.89281L4.22875 9.44531ZM2.53344 0.625L4.36937 9.375L4.53344 12H3.22094L0.588123 0.625H2.53344ZM10.2522 9.35156L12.0647 0.625H14.0178L11.385 12H10.0725L10.2522 9.35156ZM8.14281 0.625L10.385 9.46875L10.7131 12H9.47875L7.09594 2.89844L6.97094 0.625H8.14281ZM19.4 12.1562C18.775 12.1562 18.2099 12.0547 17.7047 11.8516C17.2047 11.6432 16.7776 11.3542 16.4234 10.9844C16.0745 10.6146 15.8062 10.1797 15.6187 9.67969C15.4312 9.17969 15.3375 8.64062 15.3375 8.0625V7.75C15.3375 7.08854 15.4339 6.48958 15.6266 5.95312C15.8193 5.41667 16.0875 4.95833 16.4312 4.57812C16.775 4.19271 17.1812 3.89844 17.65 3.69531C18.1187 3.49219 18.6266 3.39062 19.1734 3.39062C19.7776 3.39062 20.3062 3.49219 20.7594 3.69531C21.2125 3.89844 21.5875 4.1849 21.8844 4.55469C22.1865 4.91927 22.4104 5.35417 22.5562 5.85938C22.7073 6.36458 22.7828 6.92188 22.7828 7.53125V8.33594H16.2516V6.98438H20.9234V6.83594C20.913 6.4974 20.8453 6.17969 20.7203 5.88281C20.6005 5.58594 20.4156 5.34635 20.1656 5.16406C19.9156 4.98177 19.5823 4.89062 19.1656 4.89062C18.8531 4.89062 18.5745 4.95833 18.3297 5.09375C18.0901 5.22396 17.8896 5.41406 17.7281 5.66406C17.5667 5.91406 17.4417 6.21615 17.3531 6.57031C17.2698 6.91927 17.2281 7.3125 17.2281 7.75V8.0625C17.2281 8.43229 17.2776 8.77604 17.3766 9.09375C17.4807 9.40625 17.6318 9.67969 17.8297 9.91406C18.0276 10.1484 18.2672 10.3333 18.5484 10.4688C18.8297 10.599 19.15 10.6641 19.5094 10.6641C19.9625 10.6641 20.3661 10.5729 20.7203 10.3906C21.0745 10.2083 21.3818 9.95052 21.6422 9.61719L22.6344 10.5781C22.4521 10.8438 22.2151 11.099 21.9234 11.3438C21.6318 11.5833 21.275 11.7786 20.8531 11.9297C20.4365 12.0807 19.9521 12.1562 19.4 12.1562ZM24.8994 0H26.7822V10.1953L26.6025 12H24.8994V0ZM32.2978 7.69531V7.85938C32.2978 8.48438 32.2275 9.0599 32.0869 9.58594C31.9515 10.1068 31.7431 10.5599 31.4619 10.9453C31.1858 11.3307 30.8421 11.6302 30.4306 11.8438C30.0244 12.0521 29.553 12.1562 29.0166 12.1562C28.4905 12.1562 28.0322 12.0573 27.6416 11.8594C27.2509 11.6615 26.9228 11.3802 26.6572 11.0156C26.3968 10.651 26.1858 10.2161 26.0244 9.71094C25.8629 9.20573 25.7483 8.64844 25.6806 8.03906V7.51562C25.7483 6.90104 25.8629 6.34375 26.0244 5.84375C26.1858 5.33854 26.3968 4.90365 26.6572 4.53906C26.9228 4.16927 27.2483 3.88542 27.6337 3.6875C28.0244 3.48958 28.4801 3.39062 29.0009 3.39062C29.5426 3.39062 30.0192 3.49479 30.4306 3.70312C30.8473 3.91146 31.1936 4.20833 31.4697 4.59375C31.7457 4.97396 31.9515 5.42708 32.0869 5.95312C32.2275 6.47917 32.2978 7.0599 32.2978 7.69531ZM30.415 7.85938V7.69531C30.415 7.3151 30.3837 6.95833 30.3212 6.625C30.2587 6.28646 30.1546 5.98958 30.0087 5.73438C29.8681 5.47917 29.6754 5.27865 29.4306 5.13281C29.191 4.98177 28.8916 4.90625 28.5322 4.90625C28.1989 4.90625 27.9124 4.96354 27.6728 5.07812C27.4332 5.19271 27.2327 5.34896 27.0712 5.54688C26.9098 5.74479 26.7822 5.97396 26.6884 6.23438C26.5999 6.49479 26.54 6.77604 26.5087 7.07812V8.49219C26.5556 8.88281 26.6546 9.24219 26.8056 9.57031C26.9619 9.89323 27.1806 10.1536 27.4619 10.3516C27.7431 10.5443 28.1051 10.6406 28.5478 10.6406C28.8968 10.6406 29.191 10.5703 29.4306 10.4297C29.6702 10.2891 29.8603 10.0938 30.0009 9.84375C30.1468 9.58854 30.2509 9.29167 30.3134 8.95312C30.3811 8.61458 30.415 8.25 30.415 7.85938ZM45.3278 9.07031C45.3278 8.83594 45.2914 8.6276 45.2184 8.44531C45.1507 8.26302 45.0283 8.09635 44.8512 7.94531C44.6742 7.79427 44.4242 7.64844 44.1012 7.50781C43.7835 7.36198 43.3773 7.21354 42.8825 7.0625C42.3408 6.89583 41.8408 6.71094 41.3825 6.50781C40.9294 6.29948 40.5335 6.0599 40.195 5.78906C39.8565 5.51302 39.5934 5.19792 39.4059 4.84375C39.2184 4.48438 39.1247 4.07031 39.1247 3.60156C39.1247 3.13802 39.221 2.71615 39.4137 2.33594C39.6117 1.95573 39.8903 1.6276 40.2497 1.35156C40.6143 1.07031 41.044 0.854167 41.5387 0.703125C42.0335 0.546875 42.5804 0.46875 43.1794 0.46875C44.0231 0.46875 44.7497 0.625 45.3591 0.9375C45.9736 1.25 46.445 1.66927 46.7731 2.19531C47.1065 2.72135 47.2731 3.30208 47.2731 3.9375H45.3278C45.3278 3.5625 45.2471 3.23177 45.0856 2.94531C44.9294 2.65365 44.6898 2.42448 44.3669 2.25781C44.0492 2.09115 43.6455 2.00781 43.1559 2.00781C42.6924 2.00781 42.307 2.07812 41.9997 2.21875C41.6924 2.35938 41.4632 2.54948 41.3122 2.78906C41.1611 3.02865 41.0856 3.29948 41.0856 3.60156C41.0856 3.8151 41.1351 4.01042 41.2341 4.1875C41.333 4.35938 41.4841 4.52083 41.6872 4.67188C41.8903 4.81771 42.1455 4.95573 42.4528 5.08594C42.7601 5.21615 43.1221 5.34115 43.5387 5.46094C44.169 5.64844 44.7184 5.85677 45.1872 6.08594C45.6559 6.3099 46.0466 6.5651 46.3591 6.85156C46.6716 7.13802 46.9059 7.46354 47.0622 7.82812C47.2184 8.1875 47.2966 8.59635 47.2966 9.05469C47.2966 9.53385 47.2002 9.96615 47.0075 10.3516C46.8148 10.7318 46.5387 11.0573 46.1794 11.3281C45.8252 11.5938 45.3981 11.7995 44.8981 11.9453C44.4033 12.0859 43.8512 12.1562 43.2419 12.1562C42.695 12.1562 42.1559 12.0833 41.6247 11.9375C41.0986 11.7917 40.6195 11.5703 40.1872 11.2734C39.7549 10.9714 39.4111 10.5964 39.1559 10.1484C38.9007 9.69531 38.7731 9.16667 38.7731 8.5625H40.7341C40.7341 8.93229 40.7966 9.2474 40.9216 9.50781C41.0518 9.76823 41.2315 9.98177 41.4606 10.1484C41.6898 10.3099 41.9554 10.4297 42.2575 10.5078C42.5648 10.5859 42.8929 10.625 43.2419 10.625C43.7002 10.625 44.083 10.5599 44.3903 10.4297C44.7028 10.2995 44.9372 10.1172 45.0934 9.88281C45.2497 9.64844 45.3278 9.3776 45.3278 9.07031ZM51.4991 3.54688V12H49.6084V3.54688H51.4991ZM49.4834 1.32812C49.4834 1.04167 49.5772 0.804688 49.7647 0.617188C49.9574 0.424479 50.223 0.328125 50.5616 0.328125C50.8949 0.328125 51.1579 0.424479 51.3506 0.617188C51.5433 0.804688 51.6397 1.04167 51.6397 1.32812C51.6397 1.60938 51.5433 1.84375 51.3506 2.03125C51.1579 2.21875 50.8949 2.3125 50.5616 2.3125C50.223 2.3125 49.9574 2.21875 49.7647 2.03125C49.5772 1.84375 49.4834 1.60938 49.4834 1.32812ZM58.0766 3.54688V4.92188H53.3109V3.54688H58.0766ZM54.6859 1.47656H56.5687V9.66406C56.5687 9.92448 56.6052 10.125 56.6781 10.2656C56.7562 10.401 56.863 10.4922 56.9984 10.5391C57.1339 10.5859 57.2927 10.6094 57.475 10.6094C57.6052 10.6094 57.7302 10.6016 57.85 10.5859C57.9698 10.5703 58.0661 10.5547 58.1391 10.5391L58.1469 11.9766C57.9906 12.0234 57.8083 12.0651 57.6 12.1016C57.3969 12.138 57.1625 12.1562 56.8969 12.1562C56.4646 12.1562 56.0818 12.0807 55.7484 11.9297C55.4151 11.7734 55.1547 11.5208 54.9672 11.1719C54.7797 10.8229 54.6859 10.3594 54.6859 9.78125V1.47656ZM63.8962 12.1562C63.2712 12.1562 62.7061 12.0547 62.2009 11.8516C61.7009 11.6432 61.2739 11.3542 60.9197 10.9844C60.5707 10.6146 60.3025 10.1797 60.115 9.67969C59.9275 9.17969 59.8337 8.64062 59.8337 8.0625V7.75C59.8337 7.08854 59.9301 6.48958 60.1228 5.95312C60.3155 5.41667 60.5837 4.95833 60.9275 4.57812C61.2712 4.19271 61.6775 3.89844 62.1462 3.69531C62.615 3.49219 63.1228 3.39062 63.6697 3.39062C64.2739 3.39062 64.8025 3.49219 65.2556 3.69531C65.7087 3.89844 66.0837 4.1849 66.3806 4.55469C66.6827 4.91927 66.9067 5.35417 67.0525 5.85938C67.2035 6.36458 67.2791 6.92188 67.2791 7.53125V8.33594H60.7478V6.98438H65.4197V6.83594C65.4093 6.4974 65.3416 6.17969 65.2166 5.88281C65.0968 5.58594 64.9119 5.34635 64.6619 5.16406C64.4119 4.98177 64.0785 4.89062 63.6619 4.89062C63.3494 4.89062 63.0707 4.95833 62.8259 5.09375C62.5864 5.22396 62.3858 5.41406 62.2244 5.66406C62.0629 5.91406 61.9379 6.21615 61.8494 6.57031C61.766 6.91927 61.7244 7.3125 61.7244 7.75V8.0625C61.7244 8.43229 61.7739 8.77604 61.8728 9.09375C61.977 9.40625 62.128 9.67969 62.3259 9.91406C62.5239 10.1484 62.7634 10.3333 63.0447 10.4688C63.3259 10.599 63.6462 10.6641 64.0056 10.6641C64.4587 10.6641 64.8624 10.5729 65.2166 10.3906C65.5707 10.2083 65.878 9.95052 66.1384 9.61719L67.1306 10.5781C66.9483 10.8438 66.7114 11.099 66.4197 11.3438C66.128 11.5833 65.7712 11.7786 65.3494 11.9297C64.9327 12.0807 64.4483 12.1562 63.8962 12.1562Z" fill="#4D5AE5"/>
</svg>
